<?xml version="1.0" encoding="UTF-8"?>
<svg width="31px" height="14px" viewBox="0 0 31 14" version="1.1" xmlns="http://www.w3.org/2000/svg" xmlns:xlink="http://www.w3.org/1999/xlink">
    <g stroke="none" stroke-width="1" fill="none" fill-rule="evenodd">
        <g transform="translate(-310.000000, -1294.000000)">
            <g  transform="translate(30.000000, 1210.000000)">
                <g  transform="translate(0.000000, 44.000000)">
                    <g  transform="translate(0.000000, 16.000000)">
                        <g transform="translate(295.500000, 31.000000) rotate(270.000000) translate(-295.500000, -31.000000) translate(289.000000, 16.000000)">
                            <rect id="bounds" x="0" y="0" width="13" height="30"></rect>
                            <path d="M5.4,14 L10.7,8.7 C11.1,8.3 11.1,7.7 10.7,7.3 C10.3,6.9 9.7,6.9 9.3,7.3 L2.3,14.3 C1.9,14.7 1.9,15.3 2.3,15.7 L9.3,22.7 C9.5,22.9 9.7,23 10,23 C10.3,23 10.5,22.9 10.7,22.7 C11.1,22.3 11.1,21.7 10.7,21.3 L5.4,16 L4.60033048,15 L5.4,14 Z" id="Path" fill="#1c4077" fill-rule="nonzero"></path>
                        </g>
                    </g>
                </g>
            </g>
        </g>
    </g>
</svg>
