<svg xmlns="http://www.w3.org/2000/svg" viewBox="29.39 355.295 537.1 133.3">
	<g>
        <path fill="#002C51" d="M56.11,409.62h17.7l26.48,74.85H83.33l-4.94-15.39H50.82l-5.07,15.39H29.39L56.11,409.62z M55.08,456.19      h19.17l-9.46-29.45L55.08,456.19z"/>
        <path fill="#002C51" d="M133.36,409.62h16.25l-25.52,74.85h-14.78L84,409.62h16.71l16.25,56.82L133.36,409.62z"/>
        <path fill="#002C51" d="M160.61,484.47h-15.54v-74.85h15.54V484.47z"/>
        <path fill="#002C51" d="M169.8,417.44c6.03-6.16,13.7-9.24,23.01-9.24c12.46,0,21.57,4.13,27.33,12.39      c3.18,4.64,4.89,9.29,5.12,13.96h-15.64c-1-3.59-2.27-6.3-3.83-8.12c-2.79-3.25-6.91-4.88-12.39-4.88      c-5.57,0-9.97,2.29-13.18,6.88c-3.22,4.59-4.83,11.08-4.83,19.47c0,8.4,1.7,14.68,5.09,18.87c3.39,4.18,7.71,6.27,12.94,6.27      c5.36,0,9.46-1.79,12.27-5.38c1.56-1.93,2.85-4.82,3.87-8.68h15.54c-1.34,8.16-4.76,14.79-10.27,19.91      c-5.51,5.11-12.57,7.67-21.18,7.67c-10.65,0-19.02-3.45-25.12-10.36c-6.1-6.94-9.14-16.45-9.14-28.54      C159.4,434.59,162.87,424.52,169.8,417.44z"/>
    </g>
    <g>
        <path fill="#002C51" d="M397.98,461.33c0.48,3.42,1.43,5.98,2.85,7.67c2.59,3.08,7.03,4.62,13.33,4.62c3.77,0,6.83-0.41,9.18-1.22      c4.46-1.56,6.69-4.45,6.69-8.68c0-2.47-1.09-4.38-3.28-5.74c-2.19-1.32-5.65-2.49-10.39-3.5l-8.1-1.78      c-7.96-1.76-13.44-3.67-16.42-5.74c-5.04-3.45-7.57-8.85-7.57-16.2c0-6.7,2.47-12.27,7.4-16.71c4.93-4.43,12.18-6.65,21.75-6.65      c7.98,0,14.8,2.09,20.43,6.27c5.64,4.18,8.59,10.25,8.87,18.21h-15.03c-0.28-4.5-2.29-7.7-6.04-9.6      c-2.5-1.25-5.61-1.88-9.32-1.88c-4.13,0-7.43,0.81-9.89,2.44c-2.46,1.62-3.7,3.89-3.7,6.8c0,2.67,1.21,4.67,3.64,5.99      c1.56,0.88,4.88,1.91,9.94,3.1l13.14,3.1c5.76,1.35,10.07,3.17,12.95,5.43c4.46,3.52,6.69,8.62,6.69,15.29      c0,6.84-2.64,12.52-7.93,17.04s-12.75,6.78-22.4,6.78c-9.85,0-17.61-2.23-23.25-6.68c-5.65-4.45-8.47-10.57-8.47-18.36H397.98z"/>
        <path fill="#002C51" d="M464.9,409.59h17.7l26.48,74.85h-16.96l-4.94-15.39h-27.56l-5.07,15.39h-16.36L464.9,409.59z       M463.87,456.15h19.17l-9.46-29.45L463.87,456.15z"/>
        <path fill="#002C51" d="M505.76,409.59h16.4l29.71,52.19v-52.19h14.57v74.85h-15.64l-30.47-53.11v53.11h-14.57V409.59z"/>
    </g>
    <path fill="#002C51" d="M278.53,454.13c-0.06,0.05-0.13,0.12-0.2,0.17c-0.77,5.03-2.4,9.16-4.93,12.33     c-3.64,4.57-8.56,6.86-14.75,6.86s-11.14-2.29-14.83-6.86c-3.69-4.57-5.54-11.07-5.54-19.5s1.84-14.93,5.54-19.5     c3.69-4.57,8.63-6.86,14.83-6.86s11.11,2.29,14.75,6.88c0.14,0.18,0.27,0.39,0.41,0.58c2.09-3.55,5.07-7.72,9.27-12.07     c-5.65-5.76-13.79-8.64-24.43-8.64c-10.7,0-18.87,2.91-24.53,8.73c-7.58,6.87-11.38,17.16-11.38,30.88     c0,13.44,3.79,23.73,11.38,30.88c5.65,5.82,13.83,8.73,24.53,8.73c10.7,0,18.87-2.91,24.53-8.73     c7.55-7.14,11.32-17.43,11.32-30.88c0-1.8-0.07-3.53-0.2-5.21C290.04,444.77,284.89,448.68,278.53,454.13z"/>
    <g>
        <path fill="#8C9091" d="M383.64,371.9c0,0-10.72,15.91-30.97,8.82c-12.58-6.6-1.74-16.62,0.61-18.61      c2.91-2.46,15.37-10.28,21.08-5.05c1.53,1.39,2.76,3.2-6.48,11.11c-4.39,3.88,1.08,9.1,9.95,4.45      C386.7,367.98,383.64,371.9,383.64,371.9z"/>
        <path fill="#8C9091" d="M397.29,383.13c0,0-20.56,17.72-3.14,23.08c6.08,1.86,11.75-2.46,12.86-3.65c4-4.35,1.16-15.88-8.67-8.63      c-2.44,1.8-5.35,0.31-3.75-2.16C402.96,378.89,397.29,383.13,397.29,383.13z"/>
        <g>
            <path fill="#8C9091" d="M313.08,487.31c0,0,5.07,3.69,14.77-1.51c10.7-5.72,35.35-23.74,43.36-49.74       c7.81-25.37,4.86-40.14,28.59-59.88c0,0,1.89-1.96-3.04-2.47c-4.5-0.12-15.23,1.62-29.04,17.47c0,0-7.07,8.46-10.14,22.75       c-2.86,13.3-3.46,21.74-8.57,33.37C332.68,484.45,313.08,487.31,313.08,487.31z"/>
            <path fill="#8C9091" d="M306.42,402.63c6.61-3.44,15.79-5.46,22.19-3.95c22.4,5.27,18.38,29.31,15.08,41.86       c-2.55,9.69-8.08,20.78-15.45,28.56c-7.35,7.76-12.81,13.41-26.34,16.44l-0.94-0.65c0,0,13.69-9.86,18.79-16.4       c5.1-6.54,16.35-25.63,3-35.74c-2.53-1.91-5.22-2.96-13.09-1.11c-7.58,1.78-16.59,6.41-32.87,20.34       c-5.4,4.61-12.82,12.69-15.44,15.02c0,0,14.49-35.12,46.92-47.05c0,0-11.84-4.38-36.13,19.26       C272.14,439.19,277.19,417.88,306.42,402.63z"/>
        </g>
    </g>
</svg>
