<svg xmlns="http://www.w3.org/2000/svg" viewBox="183.96 485.28 227.9 100.3">
	<g>
		<path fill="#888B8D" d="M275.97,583.81h-83.86c-4.49,0-8.15-3.65-8.15-8.14v-82.24c0-4.49,3.65-8.15,8.15-8.15h83.86     c4.49,0,8.14,3.65,8.14,8.15v82.24C284.12,580.15,280.46,583.81,275.97,583.81z M192.12,488.74c-2.58,0-4.68,2.1-4.68,4.67v82.24     c0,2.58,2.1,4.67,4.68,4.67h83.86c2.58,0,4.67-2.1,4.67-4.67v-82.24c0-2.58-2.1-4.67-4.67-4.67H192.12z"/>
		<path fill="#003B71" d="M255.12,499.47c0,0-3.84-0.02-6.17,2.31c-2.33,2.33-33.07,33.07-33.07,33.07v-21.63     c0-15.05-19.87-13.74-19.87-13.74v55.24v13.69l19.87-19.88l49.05-49.05C264.93,499.47,255.12,499.47,255.12,499.47z"/>
		<path fill="#003B71" d="M248.96,548.48h-14.03c0,0,27.96-27.97,30.29-30.29c2.32-2.32,2.3-6.17,2.3-6.17v-9.81     c0,0-44.1,44.1-47.42,47.41c-6.4,6.4-2.76,18.72,7.68,18.72h42.51v-0.01C267.72,560.71,260.66,548.54,248.96,548.48z"/>
		<path fill="#888B8D" d="M270.03,544.72h-17.99c13.13,2.96,19.44,11.63,22.71,24.3v-19.37C274.75,549.65,275.01,544.72,270.03,544.72     z"/>
		<path fill="#888B8D" d="M409.96,584.69v-6.35h-1.9v6.35H409.96z M406.17,584.35v-5.66c0-0.69,1.28-1.25,2.85-1.25     c1.56,0,2.85,0.56,2.85,1.25v5.66c0,0.69-1.28,1.25-2.85,1.25C407.45,585.59,406.17,585.03,406.17,584.35z M297.3,584.35v-5.66     c0-0.69,1.28-1.25,2.85-1.25c1.56,0,2.85,0.56,2.85,1.25v0.91h-1.9v-1.26h-1.9v6.35h1.9v-2.76h-0.82v-0.83h2.72v3.24     c0,0.69-1.28,1.25-2.85,1.25C298.58,585.59,297.3,585.03,297.3,584.35z M324.63,585.53v-8.02h3.79c1.05,0,1.9,0.37,1.9,0.83v2.54     c0,0.38-0.38,0.53-0.85,0.64c0.46,0.08,0.85,0.25,0.85,0.74v2.67c0,0.22,0.2,0.39,0.46,0.6h-1.95c-0.21-0.17-0.41-0.39-0.41-0.6     v-3h-1.9v3.59H324.63z M326.53,578.34v2.76h1.9v-2.76H326.53z M357.66,577.51v6.84c0,0.69-1.28,1.25-2.85,1.25     c-1.56,0-2.85-0.56-2.85-1.25v-6.84h1.9v7.19h1.9v-7.19H357.66z M379.3,585.53v-8.02h3.8c1.05,0,1.9,0.37,1.9,0.83v2.76     c0,0.46-0.85,0.83-1.9,0.83h-1.9v3.59H379.3z M381.2,578.34v2.76h1.9v-2.76H381.2z"/>
		<path fill="#003B71" d="M409.25,558.54v-2.57h-2.57v6.09h2.57c1.43,0,2.57,1.15,2.57,2.58v5.01c0,2.12-1.74,3.86-3.86,3.86     c-2.12,0-3.86-1.74-3.86-3.86v-1.5h2.57v2.57h2.57v-6.09h-2.57c-1.43,0-2.57-1.15-2.57-2.58v-5.01c0-2.12,1.74-3.86,3.86-3.86     c2.12,0,3.86,1.74,3.86,3.86v1.5H409.25z M298.56,573.29l-2.99-24.84h2.61l1.15,12.21c0.14,1.57,0.31,3.1,0.42,6.26     c0.18-3.17,0.35-4.7,0.49-6.26l1.15-12.21h2.61L301,573.29H298.56z M313.31,555.97v17.32h-5.15c-1.43,0-2.58-1.15-2.58-2.57v-9.5     c0-1.43,1.15-2.57,2.58-2.57h2.57v-2.68h-4.59v-2.57h4.59C312.16,553.4,313.31,554.54,313.31,555.97z M308.16,561.22v9.5h2.57     v-9.5H308.16z M315.57,573.29v-25.05c0.7,0.04,1.32,0.31,1.81,0.77c0.49,0.45,0.76,1.11,0.76,1.81v22.47H315.57z M320.38,573.29     v-25.05c0.7,0.04,1.32,0.31,1.81,0.77s0.76,1.11,0.76,1.81v22.47H320.38z M330.01,569.64v-17.53c0-2.12,1.74-3.86,3.86-3.86     c2.12,0,3.86,1.74,3.86,3.86v2.82h-2.57v-3.9h-2.58v19.69h2.58v-3.9h2.57v2.82c0,2.12-1.74,3.86-3.86,3.86     C331.75,573.5,330.01,571.76,330.01,569.64z M339.36,569.64v-12.59c0-2.12,1.74-3.86,3.86-3.86c2.12,0,3.86,1.74,3.86,3.86v12.59     c0,2.12-1.74,3.86-3.86,3.86C341.1,573.5,339.36,571.76,339.36,569.64z M341.93,555.97v14.75h2.58v-14.75H341.93z M349.34,573.29     v-19.9h10.29c1.43,0,2.58,1.15,2.58,2.57v17.32h-2.58v-17.32h-2.57v17.32h-2.58v-17.32h-2.57v17.32H349.34z M364.46,578.16V553.4     h5.15c1.42,0,2.57,1.15,2.57,2.57v14.75c0,1.43-1.15,2.57-2.57,2.57h-2.58v4.87H364.46z M367.03,555.97v14.75h2.58v-14.75H367.03     z M382.16,555.97v17.32h-5.15c-1.43,0-2.57-1.15-2.57-2.57v-9.5c0-1.43,1.15-2.57,2.57-2.57h2.57v-2.68h-4.59v-2.57h4.59     C381.01,553.4,382.16,554.54,382.16,555.97z M377.01,561.22v9.5h2.57v-9.5H377.01z M384.41,573.29v-19.9h5.15     c1.43,0,2.57,1.15,2.57,2.57v17.32h-2.57v-17.32h-2.57v17.32H384.41z M402.11,553.4v24.77h-2.57v-4.87h-2.58     c-1.42,0-2.57-1.15-2.57-2.57V553.4h2.57v17.32h2.58V553.4H402.11z"/>
	</g>
</svg>
