<svg xmlns="http://www.w3.org/2000/svg" viewBox="51.98 313.66 491.8 219.7">
	<path fill="#00263A" d="M84.54,380.95h21.57l32.27,91.23h-20.67l-6.02-18.75H78.1l-6.18,18.75H51.98L84.54,380.95z M83.29,437.7     h23.36l-11.52-35.9L83.29,437.7z"/>
    <path fill="#00263A" d="M192.38,445.6v26.57h18.95v-43.81C207.36,430.93,198.47,437.21,192.38,445.6"/>
    <path fill="#00263A" d="M211.33,386.52v-5.57H178.4l-19.99,69.25l-19.81-69.25h-20.36l30.85,91.23h18.01l25.28-74.14v13.19     C196.02,404.35,203.28,392.08,211.33,386.52"/>
    <path fill="#00263A" d="M498.3,455.77v-74.82h-19.06v71.51l-25.3-71.51h-21.57l-25.71,72.02v-29.75h-38v15.22h21.1     c-0.95,5.95-3.47,10.75-7.56,14.42c-4.08,3.67-9.32,5.5-15.71,5.5c-6.53,0-12.34-2.33-17.45-6.98     c-5.12-4.65-7.68-12.58-7.68-23.78c0-11.12,2.37-19.45,7.08-24.98c4.73-5.54,10.76-8.31,18.11-8.31c3.83,0,7.32,0.68,10.46,2.04     c5.61,2.48,9.13,6.83,10.58,13.06h18.75c-1.03-8.79-5.06-16.12-12.1-22c-7.03-5.88-16.35-8.82-27.94-8.82     c-13.37,0-24.12,4.45-32.24,13.36c-8.13,8.91-12.19,20.74-12.19,35.5c0,14.6,4.03,26.1,12.07,34.51     c7.71,8.37,17.62,12.56,29.7,12.56c7.35,0,13.53-1.54,18.56-4.62c2.93-1.77,6.24-4.81,9.9-9.12l1.92,11.39h25.71l6.18-18.75h33.6     l6.01,18.75h78.31v-16.4H498.3z M431.12,437.7l11.83-35.9l11.53,35.9H431.12z"/>
    <path fill="#8C9091" d="M331.15,333.79c0,0-12.98,19.28-37.53,10.69c-15.24-8-2.11-20.15,0.74-22.56     c3.54-2.98,18.63-12.46,25.55-6.12c1.85,1.69,3.34,3.88-7.85,13.47c-5.34,4.7,1.3,11.03,12.05,5.4     C334.85,329.04,331.15,333.79,331.15,333.79"/>
    <path fill="#8C9091" d="M347.68,347.4c0,0-24.92,21.48-3.8,27.98c7.36,2.26,14.24-2.98,15.58-4.42c4.85-5.27,1.4-19.25-10.51-10.46     c-2.96,2.18-6.48,0.38-4.54-2.61C354.56,342.26,347.68,347.4,347.68,347.4"/>
    <path fill="#8C9091" d="M245.64,473.65c0,0,6.14,4.47,17.89-1.83c12.98-6.93,42.84-28.76,52.55-60.27     c9.47-30.74,5.89-48.64,34.65-72.56c0,0,2.29-2.38-3.67-3c-5.46-0.15-18.46,1.96-35.19,21.16c0,0-8.57,10.26-12.29,27.57     c-3.48,16.12-4.2,26.34-10.39,40.43C269.39,470.18,245.64,473.65,245.64,473.65"/>
    <path fill="#8C9091" d="M237.57,371.03c8.01-4.17,19.13-6.61,26.89-4.78c27.14,6.38,22.27,35.52,18.27,50.73     c-3.09,11.75-9.79,25.19-18.71,34.61c-8.91,9.41-15.53,16.26-31.92,19.93l-1.14-0.8c0,0,16.59-11.95,22.77-19.87     c6.19-7.93,19.81-31.05,3.64-43.32c-3.06-2.31-6.33-3.59-15.87-1.35c-9.18,2.17-20.1,7.77-39.83,24.65     c-6.54,5.59-15.54,15.38-18.71,18.2c0,0,17.56-42.55,56.86-57.02c0,0-14.36-5.31-43.79,23.33     C196.03,415.34,202.14,389.51,237.57,371.03"/>
    <path fill="#8C9091" d="M540.73,532.02v-9.38h-2.87v9.38H540.73z M534.98,531.51v-8.36c0-1.01,1.95-1.84,4.32-1.84     c2.37,0,4.31,0.83,4.31,1.84v8.36c0,1.01-1.94,1.84-4.31,1.84C536.92,533.35,534.98,532.52,534.98,531.51z M369.93,531.51v-8.36     c0-1.01,1.94-1.84,4.32-1.84c2.37,0,4.32,0.83,4.32,1.84v1.34h-2.88v-1.86h-2.88v9.38h2.88v-4.08h-1.24v-1.22h4.12v4.79     c0,1.01-1.94,1.84-4.32,1.84C371.87,533.35,369.93,532.52,369.93,531.51z M411.37,533.25v-11.83h5.76c1.59,0,2.87,0.55,2.87,1.23     v3.75c0,0.56-0.58,0.78-1.28,0.94c0.7,0.12,1.28,0.37,1.28,1.09v3.95c0,0.33,0.31,0.58,0.7,0.88h-2.95     c-0.31-0.25-0.62-0.58-0.62-0.88v-4.43h-2.88v5.3H411.37z M414.24,522.64v4.08h2.88v-4.08H414.24z M461.43,521.42v10.1     c0,1.01-1.94,1.84-4.31,1.84c-2.37,0-4.31-0.83-4.31-1.84v-10.1h2.88v10.61h2.88v-10.61H461.43z M494.25,533.25v-11.83H500     c1.59,0,2.88,0.55,2.88,1.23v4.08c0,0.68-1.29,1.22-2.88,1.22h-2.88v5.3H494.25z M497.12,522.64v4.08H500v-4.08H497.12z"/>
    <path fill="#00263A" d="M539.65,493.42v-3.8h-3.9v8.99h3.9c2.16,0,3.9,1.69,3.9,3.8v7.39c0,3.13-2.64,5.7-5.85,5.7     c-3.22,0-5.85-2.57-5.85-5.7v-2.21h3.9v3.8h3.9v-8.99h-3.9c-2.16,0-3.9-1.69-3.9-3.8v-7.4c0-3.13,2.64-5.7,5.85-5.7     c3.22,0,5.85,2.57,5.85,5.7v2.21H539.65z M371.85,515.19l-4.54-36.67h3.95l1.74,18.03c0.21,2.31,0.47,4.57,0.63,9.24     c0.26-4.67,0.53-6.93,0.74-9.24l1.74-18.03h3.96l-4.53,36.67H371.85z M394.19,489.62v25.57h-7.81c-2.16,0-3.9-1.69-3.9-3.8     v-14.02c0-2.11,1.74-3.8,3.9-3.8h3.9v-3.96h-6.96v-3.8h6.96C392.45,485.82,394.19,487.51,394.19,489.62z M386.39,497.37v14.02     h3.9v-14.02H386.39z M397.63,515.19v-36.97c1.05,0.05,2,0.46,2.74,1.13c0.74,0.67,1.16,1.64,1.16,2.67v33.17H397.63z      M404.91,515.19v-36.97c1.05,0.05,2,0.46,2.74,1.13c0.74,0.67,1.16,1.64,1.16,2.67v33.17H404.91z M419.52,509.8v-25.88     c0-3.13,2.64-5.7,5.85-5.7c3.22,0,5.85,2.57,5.85,5.7v4.16h-3.9v-5.75h-3.9v29.07h3.9v-5.75h3.9v4.16c0,3.13-2.64,5.7-5.85,5.7     C422.16,515.5,419.52,512.93,419.52,509.8z M433.69,509.8v-18.59c0-3.13,2.64-5.7,5.86-5.7c3.21,0,5.85,2.57,5.85,5.7v18.59     c0,3.13-2.64,5.7-5.85,5.7C436.33,515.5,433.69,512.93,433.69,509.8z M437.59,489.62v21.78h3.9v-21.78H437.59z M448.82,515.19     v-29.37h15.61c2.16,0,3.9,1.7,3.9,3.8v25.57h-3.9v-25.57h-3.9v25.57h-3.9v-25.57h-3.9v25.57H448.82z M471.74,522.38v-36.56h7.81     c2.16,0,3.9,1.7,3.9,3.8v21.78c0,2.1-1.74,3.8-3.9,3.8h-3.9v7.19H471.74z M475.65,489.62v21.78h3.9v-21.78H475.65z      M498.58,489.62v25.57h-7.81c-2.16,0-3.9-1.69-3.9-3.8v-14.02c0-2.11,1.74-3.8,3.9-3.8h3.9v-3.96h-6.96v-3.8h6.96     C496.84,485.82,498.58,487.51,498.58,489.62z M490.77,497.37v14.02h3.9v-14.02H490.77z M502,515.19v-29.37h7.81     c2.16,0,3.9,1.7,3.9,3.8v25.57h-3.9v-25.57h-3.9v25.57H502z M528.83,485.82v36.56h-3.9v-7.19h-3.9c-2.16,0-3.9-1.69-3.9-3.8     v-25.58h3.9v25.58h3.9v-25.58H528.83z"/>
</svg>
