<svg xmlns="http://www.w3.org/2000/svg" viewBox="77.3697 355.96 441.2 130.9">
	<g xmlns="http://www.w3.org/2000/svg">
			<linearGradient id="SVGID_1_" gradientUnits="userSpaceOnUse" x1="77.3678" y1="421.4183" x2="208.2885" y2="421.4183">
				<stop offset="0" style="stop-color:#C6C5BA"/>
				<stop offset="1" style="stop-color:#E5231D"/>
			</linearGradient>
			<path fill-rule="evenodd" clip-rule="evenodd" fill="url(#SVGID_1_)" d="M104.57,386.9c-1.7,17.37-2.06,34.85-1.29,52.29c18.01,0.89,36.05,1.11,54.08,0.82     c-0.18,9.46-0.48,18.92-0.97,28.37c9.1-0.43,18.18-1.25,27.19-2.59c1.36-8.92,2.2-17.91,2.69-26.92     c-9.6,0.56-19.22,0.89-28.84,1.07c0.31-18.21,0.17-36.42-0.52-54.62C139.45,384.72,121.97,385.16,104.57,386.9z M177.01,379.59     c0.73,6.23,1.27,12.47,1.65,18.73c5.75,0.37,11.5,0.84,17.24,1.45c-0.53-5.92-1.28-11.82-2.29-17.68     C188.11,381.03,182.57,380.23,177.01,379.59z M77.37,421.21c0.03-11.46,3.21-22.35,8.7-31.83c6.12-1.12,12.3-1.94,18.49-2.59     c0.7-6.72,1.6-13.41,2.86-20.05c10.34-6.82,22.61-10.82,35.59-10.78c35.29,0.1,65.16,29.97,65.28,65.26     c0.11,35.44-29.83,65.57-65.27,65.66c-3.75,0.01-7.45-0.31-11.05-0.95c-0.58-7.87-0.95-15.75-1.24-23.63     c-11.08-0.38-22.14-1.23-33.12-2.78c0.48,3.42,1.02,6.84,1.66,10.24C85.87,457.63,77.31,440.19,77.37,421.21z"/>
			<path fill="#E5231D" d="M517.42,368.12v59.24c0,6.21,0.44,9.32,1.11,11.76h-21.52c0.67-2.44,1.11-5.55,1.11-11.76v-47.48     c0-6.21-0.44-9.32-1.11-11.76H517.42z M271.83,395.19h-17.08c-2.55,0-3.33,1-3.33,3.77v28.18c0,2.77,0.78,3.77,3.33,3.77h17.08     c2.55,0,3.33-1,3.33-3.77v-28.18C275.16,396.19,274.38,395.19,271.83,395.19z M250.31,386.98l1.11,4.88h0.22     c0.78-2.77,2.66-4.88,5.54-4.88h24.18c8.88,0,13.09,4.33,13.09,13.98v24.18c0,9.65-4.21,13.98-13.09,13.98h-23.29     c-1.55,0-2.77-0.22-3.66-1.11c-1-0.78-1.66-2.11-2.55-4.22h-0.45v13.31c0,6.21,0.45,9.32,1.11,11.76h-20.41v-60.12     c0-6.21-0.44-9.32-1.11-11.76H250.31z M345.04,411.16h-20.41c-2.55,0-3.33,1-3.33,3.77v12.2c0,2.77,0.78,3.77,3.33,3.77h17.08     c2.55,0,3.33-1,3.33-3.77V411.16z M364.34,400.96v26.4c0,6.21,0.45,9.32,1.11,11.76h-17.86l-0.89-5.43h-0.22     c-1.66,4.22-3.55,5.43-7.43,5.43h-23.96c-9.1,0-13.09-3.77-13.09-18.08c0-14.31,4-18.08,13.09-18.08h27.18     c1.77,0,2.77-0.67,2.77-2.44v-3.33c0-1.77-1-2.44-2.77-2.44H313.2c-3.22,0-5.21,0.11-9.32,1.11l1.22-8.87h46.15     C360.13,386.98,364.34,391.31,364.34,400.96z M416.14,386.98v7.77H397.4v30.84c0,4.33,1.33,5.32,4.77,5.32h7.88     c5.43,0,9.76-0.55,10.87-1.22l-1.77,9.43h-28.4c-7.76,0-12.65-4.55-12.65-14.75v-29.62H368v-7.77h10.09v-10.65l19.3-2.55v13.2     H416.14z M444.54,409.61h23.74v-10.65c0-2.77-0.78-3.77-3.33-3.77h-17.08c-2.55,0-3.33,1-3.33,3.77V409.61z M487.58,417.82     h-43.04v9.32c0,2.77,0.78,3.77,3.33,3.77h33.61c1.66,0,3.77-0.22,6.1-0.67l-1.55,8.87h-47.7c-8.87,0-13.09-4.32-13.09-13.98     v-24.18c0-9.65,4.22-13.98,13.09-13.98h36.16c8.88,0,13.09,4.33,13.09,13.98V417.82z"/>
		</g>
</svg>
