<svg xmlns="http://www.w3.org/2000/svg" viewBox="211.236 57.37 1181 623.5">
	<path fill-rule="evenodd" clip-rule="evenodd" fill="#b41015" d="M 1368.96 325.67 v 48.08 h 21.14 v 49.72 h -21.14 c 0 9.99 1.55 16.87 4.66 20.65 c 3.18 3.77 8.97 5.66 17.38 5.66 v 49.47 l -5.41 0.12 c -10.66 0 -20.73 -2.48 -30.22 -7.43 c -9.39 -4.95 -16.95 -11.66 -22.66 -20.14 c -7.2 -10.83 -10.81 -25.17 -10.81 -43.05 V 325.67 H 1368.96 L 1368.96 325.67 z M 1299.62 497.48 h -47.08 v -70.87 c 0 -7.21 -2.97 -10.82 -8.94 -10.82 c -5.86 0 -8.8 3.61 -8.8 10.82 v 70.87 h -47.07 v -69.99 c 0 -16.36 5.4 -30.12 16.23 -41.28 c 10.83 -11.24 24.08 -16.86 39.78 -16.87 c 17.95 0 32.33 6.51 43.16 19.51 c 8.47 10.15 12.7 24.29 12.72 42.42 V 497.48 L 1299.62 497.48 z M 1168.22 442.34 h -71.37 c -1.1 -3.6 -1.63 -6.92 -1.63 -9.94 c 0 -4.19 0.76 -8.3 2.27 -12.34 h 23.91 c -1.68 -9.31 -6.93 -13.97 -15.75 -13.97 c -5.86 0 -10.66 2.51 -14.34 7.55 c -3.7 4.95 -5.54 11.33 -5.54 19.13 c 0 8.14 1.75 14.73 5.28 19.76 c 3.61 5.04 8.3 7.55 14.1 7.55 c 4.69 0 9.23 -2.35 13.6 -7.05 l 26.82 32.22 c -12.51 9.82 -26.4 14.72 -41.67 14.72 c -18.63 0 -34.28 -6.25 -46.95 -18.75 c -12.67 -12.5 -19.01 -27.99 -19.01 -46.45 c 0 -18.38 6.38 -33.89 19.13 -46.57 c 12.84 -12.67 28.57 -19 47.2 -19.01 c 18.2 0 33.47 6.21 45.81 18.63 c 12.43 12.33 18.63 27.56 18.63 45.69 C 1168.72 435.38 1168.54 438.32 1168.22 442.34 L 1168.22 442.34 z M 1031.02 370.73 v 50.35 c -3.27 -1.85 -6.25 -2.77 -8.94 -2.77 c -8.56 0 -12.84 6.55 -12.84 19.64 v 59.54 h -47.07 v -68.6 c 0 -18.13 4.95 -32.56 14.85 -43.3 c 9.9 -10.83 23.12 -16.24 39.64 -16.24 C 1020.36 369.34 1025.14 369.8 1031.02 370.73 L 1031.02 370.73 z M 948.32 370.73 v 50.35 c -3.27 -1.85 -6.25 -2.77 -8.93 -2.77 c -8.56 0 -12.84 6.55 -12.84 19.64 v 59.54 h -47.07 v -68.6 c 0 -18.13 4.95 -32.56 14.85 -43.3 c 9.9 -10.83 23.12 -16.24 39.65 -16.24 C 937.66 369.34 942.44 369.8 948.32 370.73 L 948.32 370.73 z M 793.76 415.79 c -5.04 0 -9.31 1.85 -12.84 5.54 c -3.53 3.61 -5.29 8.06 -5.29 13.34 c 0 5.2 1.76 9.65 5.29 13.34 c 3.61 3.7 7.89 5.54 12.84 5.54 c 5.04 0 9.31 -1.85 12.84 -5.54 c 3.61 -3.69 5.41 -8.14 5.42 -13.34 c 0 -5.29 -1.76 -9.73 -5.29 -13.34 C 803.2 417.64 798.88 415.79 793.76 415.79 L 793.76 415.79 z M 795.02 369.34 c 17.78 0 33.02 6.42 45.69 19.26 c 12.75 12.76 19.13 28.07 19.13 45.94 c 0 18.13 -6.46 33.57 -19.38 46.32 c -12.84 12.75 -28.36 19.12 -46.57 19.13 c -18.21 0 -33.77 -6.37 -46.7 -19.13 c -12.92 -12.84 -19.38 -28.28 -19.38 -46.32 c 0 -18.37 6.46 -33.81 19.38 -46.31 C 760.11 375.64 776.05 369.34 795.02 369.34 L 795.02 369.34 z M 691.18 325.67 v 48.08 h 21.15 v 49.72 H 691.18 c 0 9.99 1.55 16.87 4.66 20.65 c 3.19 3.77 8.97 5.66 17.37 5.66 v 49.47 l -5.42 0.12 c -10.66 0 -20.73 -2.48 -30.21 -7.43 c -9.4 -4.95 -16.95 -11.66 -22.66 -20.14 c -7.22 -10.83 -10.83 -25.17 -10.83 -43.05 V 325.67 H 691.18 L 691.18 325.67 z
M284.33,63.29c22.83-0.16,25.78,11.05,25.78,11.05s7.36-15.47,28.72-15.47c21.36,0,24.31,15.47,24.31,15.47    s2.94-10.31,28.72-10.31c0,0,39.59,3.98,13.99,61.13c0,0-18.41,40.51-67.02,41.98c0,0-58.18,2.21-73.65-51.56    C265.18,115.58,248.62,63.55,284.33,63.29L284.33,63.29z M476.43,414.76c0,0-89.86,1.4-93.36-91.96h93.36V414.76L476.43,414.76z     M312.16,211.53c0-4.46,3.61-8.07,8.07-8.07c4.46,0,8.07,3.61,8.07,8.07c0,4.46-3.61,8.08-8.07,8.08    C315.78,219.6,312.16,215.98,312.16,211.53L312.16,211.53z M245.49,178.5c0,0,127.41-41.24,192.96,90.59    c0,0,31.67-118.58,153.93-118.58v404.64c0,0-5.04,124.25-138.41,124.25c-133.37,0-143.2-117.94-143.2-117.94V431.6    c0,0-42.12,55.46-80.02,18.25c-37.91-37.2-4.21-70.9-4.21-70.9s38.61-53.35,51.24-64.58c12.64-11.23,31.59-31.59,16.14-51.25    c-15.44-19.66-52.64-0.7-52.64-0.7l30.89-42.82L245.49,178.5L245.49,178.5z"/>
</svg>
